<svg width="121" height="40" viewBox="0 0 121 40" fill="none" xmlns="http://www.w3.org/2000/svg">
<path d="M79.9062 16.3213C79.9062 12.335 77.8518 8.51202 74.1948 5.69329C70.5379 2.87456 65.578 1.29102 60.4063 1.29102C55.2345 1.29102 50.2746 2.87456 46.6177 5.69329C42.9607 8.51202 40.9063 12.335 40.9063 16.3213H44.1362C44.1362 12.9953 45.8504 9.80555 48.9016 7.45372C51.9528 5.10189 56.0912 3.78064 60.4063 3.78064C64.7213 3.78064 68.8597 5.10189 71.9109 7.45372C74.9621 9.80556 76.6763 12.9953 76.6763 16.3213H79.9062Z" fill="#5B5B5B"/>
<path d="M79.9062 15.3819C79.9062 11.3956 77.8518 7.57257 74.1948 4.75384C70.5379 1.93511 65.578 0.351563 60.4063 0.351563C55.2345 0.351562 50.2746 1.93511 46.6177 4.75384C42.9607 7.57256 40.9063 11.3956 40.9063 15.3819H44.1395C44.1395 12.0565 45.8533 8.8674 48.9039 6.51603C51.9545 4.16467 56.092 2.84368 60.4063 2.84369C64.7205 2.84369 68.858 4.16467 71.9086 6.51603C74.9592 8.8674 76.673 12.0565 76.673 15.3819H79.9062Z" fill="#F6EFEF"/>
<path fill-rule="evenodd" clip-rule="evenodd" d="M120.906 14H0.90625V34C0.90625 37.3137 3.59254 40 6.90625 40H114.906C118.22 40 120.906 37.3137 120.906 34V14ZM12.193 20.7515V33.3515H18.457C20.089 33.3515 21.319 33.0515 22.147 32.4515C22.975 31.8515 23.389 31.0115 23.389 29.9315C23.389 29.1995 23.221 28.5875 22.885 28.0955C22.561 27.6035 22.117 27.2315 21.553 26.9795C21.4096 26.9124 21.2616 26.8538 21.1089 26.8038C21.5921 26.5442 21.9801 26.1948 22.273 25.7555C22.585 25.2755 22.741 24.6995 22.741 24.0275C22.741 23.0315 22.345 22.2395 21.553 21.6515C20.761 21.0515 19.609 20.7515 18.097 20.7515H12.193ZM18.313 31.5155H14.533V27.8795H18.313C19.189 27.8795 19.861 28.0295 20.329 28.3295C20.797 28.6175 21.031 29.0735 21.031 29.6975C21.031 30.3335 20.797 30.7955 20.329 31.0835C19.861 31.3715 19.189 31.5155 18.313 31.5155ZM14.533 26.0615V22.5875H17.845C18.661 22.5875 19.285 22.7315 19.717 23.0195C20.161 23.3075 20.383 23.7455 20.383 24.3335C20.383 24.9095 20.161 25.3415 19.717 25.6295C19.285 25.9175 18.661 26.0615 17.845 26.0615H14.533ZM29.0723 33.0455C29.9003 33.3695 30.8063 33.5315 31.7903 33.5315C32.7623 33.5315 33.6563 33.3695 34.4723 33.0455C35.3003 32.7215 36.0203 32.2715 36.6323 31.6955C37.2443 31.1195 37.7183 30.4355 38.0543 29.6435C38.3903 28.8515 38.5583 27.9875 38.5583 27.0515C38.5583 26.1155 38.3903 25.2575 38.0543 24.4775C37.7183 23.6855 37.2443 23.0015 36.6323 22.4255C36.0203 21.8375 35.3003 21.3815 34.4723 21.0575C33.6563 20.7335 32.7563 20.5715 31.7723 20.5715C30.8003 20.5715 29.9003 20.7335 29.0723 21.0575C28.2443 21.3815 27.5243 21.8375 26.9123 22.4255C26.3003 23.0015 25.8263 23.6855 25.4903 24.4775C25.1543 25.2575 24.9863 26.1155 24.9863 27.0515C24.9863 27.9875 25.1543 28.8515 25.4903 29.6435C25.8263 30.4235 26.3003 31.1075 26.9123 31.6955C27.5243 32.2715 28.2443 32.7215 29.0723 33.0455ZM33.5363 31.1555C32.9963 31.3715 32.4083 31.4795 31.7723 31.4795C31.1363 31.4795 30.5483 31.3715 30.0083 31.1555C29.4683 30.9395 29.0003 30.6335 28.6043 30.2375C28.2083 29.8295 27.8963 29.3555 27.6683 28.8155C27.4523 28.2755 27.3443 27.6875 27.3443 27.0515C27.3443 26.4035 27.4523 25.8155 27.6683 25.2875C27.8963 24.7475 28.2083 24.2795 28.6043 23.8835C29.0123 23.4755 29.4803 23.1635 30.0083 22.9475C30.5483 22.7315 31.1363 22.6235 31.7723 22.6235C32.4083 22.6235 32.9963 22.7315 33.5363 22.9475C34.0763 23.1635 34.5443 23.4755 34.9403 23.8835C35.3363 24.2795 35.6423 24.7475 35.8583 25.2875C36.0863 25.8155 36.2003 26.4035 36.2003 27.0515C36.2003 27.6995 36.0863 28.2935 35.8583 28.8335C35.6423 29.3615 35.3363 29.8295 34.9403 30.2375C34.5443 30.6335 34.0763 30.9395 33.5363 31.1555ZM42.3887 32.0735C43.3727 33.0455 44.7287 33.5315 46.4567 33.5315C48.1727 33.5315 49.5167 33.0455 50.4887 32.0735C51.4727 31.1015 51.9647 29.6975 51.9647 27.8615V20.7515H49.6607V27.7715C49.6607 29.0675 49.3847 30.0095 48.8327 30.5975C48.2807 31.1855 47.4947 31.4795 46.4747 31.4795C45.4547 31.4795 44.6627 31.1855 44.0987 30.5975C43.5467 30.0095 43.2707 29.0675 43.2707 27.7715V20.7515H40.9307V27.8615C40.9307 29.6975 41.4167 31.1015 42.3887 32.0735ZM57.5693 22.7315V33.3515H59.9093V22.7315H64.0853V20.7515H53.3933V22.7315H57.5693ZM68.1814 20.7515H65.8414V33.3515H68.1814V20.7515ZM76.7611 33.5004C76.0557 33.4391 75.3938 33.2875 74.7755 33.0455C73.9475 32.7215 73.2275 32.2715 72.6155 31.6955C72.0035 31.1075 71.5295 30.4235 71.1935 29.6435C70.8575 28.8515 70.6895 27.9875 70.6895 27.0515C70.6895 26.1155 70.8575 25.2575 71.1935 24.4775C71.5295 23.6855 72.0035 23.0015 72.6155 22.4255C73.2275 21.8375 73.9475 21.3815 74.7755 21.0575C75.6035 20.7335 76.5035 20.5715 77.4755 20.5715C78.4595 20.5715 79.3595 20.7335 80.1755 21.0575C81.0035 21.3815 81.7235 21.8315 82.3355 22.4075C82.9475 22.9835 83.4215 23.6675 83.7575 24.4595C84.0935 25.2515 84.2615 26.1155 84.2615 27.0515C84.2615 27.9875 84.0935 28.8515 83.7575 29.6435C83.4215 30.4355 82.9475 31.1195 82.3355 31.6955C81.7235 32.2715 81.0035 32.7215 80.1755 33.0455C79.9713 33.1266 79.7622 33.1975 79.5482 33.2583C79.6512 33.3652 79.7523 33.4623 79.8515 33.5495C80.1635 33.8255 80.4635 34.0235 80.7515 34.1435C81.0395 34.2635 81.3395 34.3235 81.6515 34.3235C82.4795 34.3235 83.1995 33.9875 83.8115 33.3155L84.8915 34.6115C84.0515 35.6075 82.9535 36.1055 81.5975 36.1055C81.1535 36.1055 80.7215 36.0515 80.3015 35.9435C79.8935 35.8475 79.4855 35.6795 79.0775 35.4395C78.6815 35.2115 78.2675 34.9055 77.8355 34.5215C77.5023 34.2346 77.1442 33.8943 76.7611 33.5004ZM79.2395 31.1555C78.6995 31.3715 78.1115 31.4795 77.4755 31.4795C76.8395 31.4795 76.2515 31.3715 75.7115 31.1555C75.1715 30.9395 74.7035 30.6335 74.3075 30.2375C73.9115 29.8295 73.5995 29.3555 73.3715 28.8155C73.1555 28.2755 73.0475 27.6875 73.0475 27.0515C73.0475 26.4035 73.1555 25.8155 73.3715 25.2875C73.5995 24.7475 73.9115 24.2795 74.3075 23.8835C74.7035 23.4755 75.1715 23.1635 75.7115 22.9475C76.2515 22.7315 76.8395 22.6235 77.4755 22.6235C78.1115 22.6235 78.6995 22.7315 79.2395 22.9475C79.7795 23.1635 80.2475 23.4755 80.6435 23.8835C81.0395 24.2795 81.3455 24.7475 81.5615 25.2875C81.7895 25.8155 81.9035 26.4035 81.9035 27.0515C81.9035 27.6875 81.7895 28.2755 81.5615 28.8155C81.3455 29.3555 81.0395 29.8295 80.6435 30.2375C80.2475 30.6335 79.7795 30.9395 79.2395 31.1555ZM88.0918 32.0735C89.0758 33.0455 90.4318 33.5315 92.1598 33.5315C93.8758 33.5315 95.2198 33.0455 96.1918 32.0735C97.1758 31.1015 97.6678 29.6975 97.6678 27.8615V20.7515H95.3638V27.7715C95.3638 29.0675 95.0878 30.0095 94.5358 30.5975C93.9838 31.1855 93.1978 31.4795 92.1778 31.4795C91.1578 31.4795 90.3658 31.1855 89.8018 30.5975C89.2498 30.0095 88.9738 29.0675 88.9738 27.7715V20.7515H86.6338V27.8615C86.6338 29.6975 87.1198 31.1015 88.0918 32.0735ZM103.285 27.9155V31.3895H110.395V33.3515H100.945V20.7515H110.143V22.7135H103.285V25.9895H109.369V27.9155H103.285Z" fill="#F6EFEF"/>
</svg>
