<svg width="551" height="466" viewBox="0 0 551 466" fill="none" xmlns="http://www.w3.org/2000/svg">
<path d="M562.482 442.831C562.482 442.661 562.503 442.495 562.544 442.33C565.41 430.641 558.265 410.483 562.482 400.6C568.065 387.512 573.717 374.299 576.799 356.701C577.57 352.277 578.442 348.009 579.272 343.836C582.282 328.798 584.978 315.453 581.956 304.083C578.131 289.576 546.385 205.915 536.938 195.073C527.48 184.254 498.786 187.383 500.932 219.113C501.99 234.768 507.638 253.208 512.773 269.947C518.018 287.114 522.733 302.487 521.339 311.16C519.913 320.083 515.752 336.563 512.093 350.305C511.462 352.674 508.132 352.029 508.402 349.592L511.554 321.054C511.557 321.027 511.56 321.005 511.563 320.978C511.636 320.415 512.417 313.238 506.38 303.016C500.064 292.354 480.059 281.859 478.577 297.042C477.147 311.611 470.804 326.809 470.307 327.983C470.284 328.038 470.267 328.084 470.248 328.14L449.307 391.792C449.3 391.815 449.297 391.822 449.291 391.845C449.082 392.57 442.987 413.957 446.212 423.181C447.31 426.321 448.091 433.941 448.938 442.575C449.924 452.313 451.026 463.339 452.884 470.653L458.933 486.024C459.278 486.9 460.187 487.417 461.117 487.265L560.805 470.928C561.772 470.77 562.482 469.934 562.482 468.955L562.482 442.831ZM235.238 557.004C235.083 556.61 234.806 556.274 234.447 556.049C224.469 549.786 214.823 545.545 205.095 541.243C192.038 535.49 178.88 529.679 164.597 518.915C161.018 516.202 157.448 513.663 153.996 511.175C141.517 502.252 130.456 494.34 124.885 483.973C117.791 470.733 90.1066 385.474 89.6479 371.095C89.2128 356.725 112.428 339.426 132.517 364.095C142.411 376.272 150.863 393.61 158.53 409.352C166.374 425.496 173.417 439.953 180.349 445.35C187.503 450.91 201.848 460.144 213.93 467.704C216.008 469.004 218.002 466.26 216.142 464.662L194.303 445.902C194.282 445.884 194.265 445.869 194.244 445.852C193.801 445.487 188.327 440.772 185.797 429.175C183.152 417.069 190.69 395.735 202.139 405.829C213.147 415.503 228.18 422.29 229.346 422.809C229.4 422.833 229.444 422.855 229.496 422.883L288.32 455.146C288.34 455.157 288.347 455.161 288.367 455.173C289.007 455.556 308.101 467.036 312.028 475.986C314.871 482.462 327.108 504.981 333.942 517.461L339.849 532.472C340.254 533.5 339.748 534.661 338.721 535.066L243.5 572.538C242.472 572.942 241.311 572.437 240.907 571.409L235.238 557.004Z" fill="#4D9ED8"/>
<path d="M167.238 295.93L321.027 370.842C327.41 373.95 334.751 374.52 341.565 372.429C348.378 370.338 354.136 365.748 357.676 359.594L442.963 211.307C457.328 186.413 460.646 156.658 452.22 129.205L451.043 125.368C436.851 79.1271 391.343 49.9529 343.429 56.334C311.72 60.5646 284.05 79.8419 269.103 108.027L263.601 118.401L253.226 112.899C225.042 97.9522 191.322 97.516 162.699 111.802C119.454 133.398 98.1476 183.078 112.339 229.319L113.517 233.156C121.943 260.61 141.381 283.38 167.238 295.93Z" fill="#4D9ED8"/>
</svg>
