<svg width="514" height="62" viewBox="0 0 514 62" fill="none" xmlns="http://www.w3.org/2000/svg">
<path d="M459 25.0597C458.006 25.6223 457.178 26.4413 456.602 27.4324C456.027 28.4235 455.724 29.5511 455.724 30.6992C455.724 33.1213 457.045 35.2303 459 36.3386L456.813 43.7248C455.631 43.5201 454.416 43.6528 453.305 44.1079C452.194 44.5629 451.232 45.322 450.528 46.2993C449.823 47.2765 449.405 48.4328 449.32 49.637C449.236 50.8412 449.488 52.0452 450.048 53.1126L443.759 58.0306C442.927 57.3436 441.936 56.8785 440.877 56.6781C439.819 56.4777 438.728 56.5485 437.704 56.8839C436.681 57.2193 435.757 57.8086 435.019 58.5975C434.281 59.3864 433.752 60.3496 433.481 61.3983L423.446 61.3737C423.172 60.3301 422.642 59.3722 421.905 58.5878C421.168 57.8033 420.248 57.2173 419.228 56.8832C418.208 56.5492 417.121 56.4778 416.067 56.6755C415.012 56.8733 414.024 57.3339 413.192 58.0153L406.909 53.0573C407.454 51.9944 407.695 50.8001 407.605 49.6075C407.515 48.4149 407.098 47.2708 406.401 46.3024C405.704 45.3341 404.753 44.5796 403.655 44.1229C402.556 43.6662 401.354 43.5252 400.181 43.7156L398 36.3017C398.976 35.7332 399.786 34.9162 400.349 33.9327C400.911 32.9493 401.207 31.834 401.206 30.6992C401.206 28.3046 399.922 26.2171 398 25.0966L400.181 17.6827C401.354 17.8738 402.557 17.7333 403.656 17.2769C404.754 16.8204 405.706 16.066 406.404 15.0975C407.101 14.1291 407.518 12.9847 407.608 11.7917C407.698 10.5988 407.457 9.40418 406.912 8.34096L413.189 3.38305C414.021 4.06442 415.009 4.52504 416.064 4.72279C417.118 4.92055 418.205 4.84914 419.225 4.51508C420.245 4.18103 421.165 3.59499 421.902 2.81054C422.639 2.02609 423.169 1.06824 423.443 0.0245593L433.484 0C433.755 1.04871 434.284 2.01186 435.022 2.80077C435.76 3.58968 436.684 4.17898 437.708 4.51441C438.731 4.84985 439.822 4.92063 440.881 4.72023C441.939 4.51984 442.93 4.05472 443.762 3.3677L450.045 8.28877C449.485 9.35614 449.233 10.5602 449.317 11.7644C449.402 12.9686 449.82 14.1249 450.525 15.1021C451.229 16.0793 452.191 16.8385 453.302 17.2935C454.413 17.7485 455.628 17.8812 456.81 17.6766L459 25.0566V25.0597ZM428.931 48.8488C433.366 48.6334 436.265 47.2181 439.098 43.7248C442.335 39.734 441.809 33.9651 441.809 30.7084C441.809 27.4516 442.253 21.9827 439.098 18.1496C436.265 14.7087 432.877 13.4639 428.5 13.2565C423.639 13.026 420.545 14.3189 417.409 18.1496C414.264 21.9916 414.698 27.4516 414.698 30.7084C414.698 33.9651 414.176 39.7312 417.409 43.7248C420.547 47.6008 424.018 49.0873 428.931 48.8488Z" fill="white"/>
<path d="M0 58.7209V1.58057H14.1076L29.6349 33.2562L45.0735 1.58057H59.0924V58.7209H44.8073V25.8918L33.5389 48.9609H25.6422L14.2851 25.8918V58.7209H0Z" fill="white"/>
<path d="M68.1051 58.7209V1.58057H82.3902V58.7209H68.1051Z" fill="white"/>
<path d="M91.4133 58.7209V1.58057H103.658L127.969 35.7406V1.58057H142.343V58.7209H130.01L105.698 24.6497V58.7209H91.4133Z" fill="white"/>
<path d="M151.374 58.7209V1.58057H193.519V12.5827H165.659V24.5609H190.236V35.7406H165.659V47.7188H193.519V58.7209H151.374Z" fill="white"/>
<path d="M198.555 58.7209L220.382 1.58057H235.82L257.647 58.7209H242.741L237.595 45.7668H218.519L213.461 58.7209H198.555ZM220.471 35.2082H235.643L228.012 15.3333L220.471 35.2082Z" fill="white"/>
<path d="M286.716 59.6082C281.392 59.6082 276.749 58.7505 272.786 57.0351C268.882 55.3197 265.835 52.7762 263.647 49.4046C261.517 46.0329 260.453 41.8923 260.453 36.9828V1.58057H274.738V35.6518C274.738 39.615 275.773 42.5726 277.843 44.5246C279.913 46.4766 282.871 47.4526 286.716 47.4526C290.561 47.4526 293.518 46.4766 295.589 44.5246C297.659 42.5726 298.694 39.615 298.694 35.6518V1.58057H312.979V36.9828C312.979 41.8923 311.885 46.0329 309.696 49.4046C307.567 52.7762 304.521 55.3197 300.557 57.0351C296.653 58.7505 292.04 59.6082 286.716 59.6082Z" fill="white"/>
<path d="M321.55 58.7209V1.58057H350.12C356.863 1.58057 361.832 3.35511 365.026 6.9042C368.22 10.4533 369.817 15.215 369.817 21.1893C369.817 25.0341 368.841 28.4058 366.889 31.3042C364.937 34.2026 362.276 36.3617 358.904 37.7813C359.732 38.432 360.383 39.1714 360.856 39.9995C361.388 40.7684 361.95 41.8628 362.542 43.2824L369.285 58.7209H354.379L347.99 44.1697C347.458 42.9275 346.778 42.0402 345.95 41.5078C345.122 40.9163 343.939 40.6206 342.401 40.6206H335.835V58.7209H321.55ZM335.835 29.6184H346.393C349.173 29.6184 351.332 28.9381 352.87 27.5777C354.467 26.158 355.266 24.0286 355.266 21.1893C355.266 15.4516 352.515 12.5827 347.014 12.5827H335.835V29.6184Z" fill="white"/>
<path d="M377.091 58.7209V1.58057H391.376V58.7209H377.091Z" fill="white"/>
<path d="M462.872 58.7209V1.58057H475.116L499.428 35.7406V1.58057H513.802V58.7209H501.468L477.157 24.6497V58.7209H462.872Z" fill="white"/>
</svg>
