<svg width="512" height="512" viewBox="0 0 512 512" fill="none" xmlns="http://www.w3.org/2000/svg">
<path d="M506 210.075C506 210.075 491.067 221.326 486.348 229.397C481.629 237.468 479.145 246.65 479.15 256C479.15 275.725 489.975 292.9 506 301.925L488.075 362.075C478.386 360.408 468.424 361.489 459.318 365.194C450.212 368.9 442.326 375.082 436.554 383.04C430.782 390.999 427.354 400.415 426.66 410.221C425.965 420.028 428.032 429.833 432.625 438.525L381.075 478.575C374.25 472.98 366.127 469.192 357.455 467.561C348.782 465.929 339.838 466.505 331.447 469.237C323.055 471.968 315.486 476.767 309.435 483.192C303.385 489.616 299.049 497.46 296.825 506L214.575 505.8C212.327 497.301 207.985 489.5 201.945 483.112C195.905 476.724 188.36 471.952 180 469.231C171.64 466.511 162.731 465.929 154.088 467.54C145.446 469.15 137.344 472.901 130.525 478.45L79.025 438.075C83.4893 429.419 85.4638 419.693 84.7285 409.981C83.9933 400.269 80.5773 390.952 74.8606 383.066C69.144 375.18 61.3511 369.036 52.3494 365.317C43.3478 361.597 33.4905 360.449 23.875 362L6 301.625C13.9987 296.995 20.6379 290.342 25.2501 282.333C29.8623 274.324 32.2851 265.242 32.275 256C32.275 236.5 21.75 219.5 6 210.375L23.875 150C33.4924 151.556 43.3531 150.412 52.3587 146.695C61.3643 142.978 69.1613 136.834 74.8812 128.947C80.6012 121.061 84.0196 111.741 84.7556 102.026C85.4916 92.3117 83.5164 82.5834 79.05 73.925L130.5 33.55C137.319 39.0988 145.42 42.8498 154.063 44.4603C162.706 46.0707 171.615 45.4892 179.975 42.7688C188.335 40.0484 195.88 35.276 201.92 28.8878C207.96 22.4995 212.302 14.6993 214.55 6.2L296.85 6C299.074 14.5402 303.41 22.3837 309.46 28.8082C315.511 35.2327 323.08 40.0317 331.471 42.7633C339.863 45.495 348.807 46.0713 357.48 44.4394C366.152 42.8075 374.275 39.0198 381.1 33.425L432.6 73.5C428.007 82.1922 425.94 91.9972 426.635 101.804C427.329 111.61 430.757 121.026 436.529 128.985C442.301 136.943 450.187 143.125 459.293 146.831C468.399 150.536 478.361 151.617 488.05 149.95L506 210.075ZM256 356C282.522 356 307.957 345.464 326.711 326.711C345.464 307.957 356 282.522 356 256C356 229.478 345.464 204.043 326.711 185.289C307.957 166.536 282.522 156 256 156C229.478 156 204.043 166.536 185.289 185.289C166.536 204.043 156 229.478 156 256C156 282.522 166.536 307.957 185.289 326.711C204.043 345.464 229.478 356 256 356Z" fill="url(#paint0_radial_1118_800)"/>
<path d="M256 451C363.696 451 451 363.696 451 256C451 148.304 363.696 61 256 61C148.304 61 61 148.304 61 256C61 363.696 148.304 451 256 451Z" fill="url(#paint1_linear_1118_800)" stroke="#18354A" stroke-width="14"/>
<path d="M148 148H199.5L279.5 202.5L313 148H363.5L427 206.5C427 206.5 450.075 265.197 417 333C387 394.5 321.5 420.5 321.5 420.5L148 364V148Z" fill="#292929" fill-opacity="0.6"/>
<circle cx="256" cy="256" r="180.5" stroke="#31668B" stroke-width="15"/>
<g filter="url(#filter0_d_1118_800)">
<path d="M148 364V148H199.568L256.162 239.901L312.757 148H364V364H311.784V239.901L256.324 327.106H256.162L200.216 239.901V364H148Z" fill="white"/>
</g>
<defs>
<filter id="filter0_d_1118_800" x="144" y="144" width="224" height="224" filterUnits="userSpaceOnUse" color-interpolation-filters="sRGB">
<feFlood flood-opacity="0" result="BackgroundImageFix"/>
<feColorMatrix in="SourceAlpha" type="matrix" values="0 0 0 0 0 0 0 0 0 0 0 0 0 0 0 0 0 0 127 0" result="hardAlpha"/>
<feOffset/>
<feGaussianBlur stdDeviation="2"/>
<feComposite in2="hardAlpha" operator="out"/>
<feColorMatrix type="matrix" values="0 0 0 0 0.215686 0 0 0 0 0.454902 0 0 0 0 0.670588 0 0 0 1 0"/>
<feBlend mode="normal" in2="BackgroundImageFix" result="effect1_dropShadow_1118_800"/>
<feBlend mode="normal" in="SourceGraphic" in2="effect1_dropShadow_1118_800" result="shape"/>
</filter>
<radialGradient id="paint0_radial_1118_800" cx="0" cy="0" r="1" gradientUnits="userSpaceOnUse" gradientTransform="translate(256 256) rotate(90) scale(250)">
<stop offset="0.614583" stop-color="#1A1D25"/>
<stop offset="0.869792" stop-color="#313747"/>
</radialGradient>
<linearGradient id="paint1_linear_1118_800" x1="125.846" y1="123.436" x2="376.513" y2="403.026" gradientUnits="userSpaceOnUse">
<stop offset="0.220941" stop-color="#5BB8FF"/>
<stop offset="0.535606" stop-color="#4B9AD7"/>
</linearGradient>
</defs>
</svg>
