<?xml version="1.0" standalone="no"?>
<!DOCTYPE svg PUBLIC "-//W3C//DTD SVG 20010904//EN"
 "http://www.w3.org/TR/2001/REC-SVG-20010904/DTD/svg10.dtd">
<svg version="1.0" xmlns="http://www.w3.org/2000/svg"
 width="700.000000pt" height="700.000000pt" viewBox="0 0 700.000000 700.000000"
 preserveAspectRatio="xMidYMid meet">
<metadata>
Created by potrace 1.14, written by Peter Selinger 2001-2017
</metadata>
<g transform="translate(0.000000,700.000000) scale(0.100000,-0.100000)"
fill="#000000" stroke="none">
<path d="M2010 6749 c-250 -125 -461 -232 -467 -238 -7 -7 -13 -9 -13 -6 0 3
-21 -10 -47 -28 -27 -18 -167 -115 -313 -214 -146 -100 -274 -190 -285 -200
-17 -16 -79 -69 -214 -188 -18 -16 -39 -34 -45 -40 -6 -5 -45 -39 -86 -75 -77
-67 -126 -111 -164 -145 -12 -11 -38 -34 -58 -51 -40 -35 -51 -57 -101 -189
-83 -219 -158 -561 -172 -780 -2 -44 -7 -118 -10 -165 -11 -168 -29 -886 -29
-1195 0 -204 8 -431 19 -497 2 -13 6 -63 10 -112 4 -49 8 -98 10 -110 2 -11 6
-48 9 -81 7 -66 13 -123 21 -173 3 -17 7 -49 10 -70 5 -34 49 -280 59 -327 15
-76 60 -253 68 -268 8 -15 99 -106 189 -188 15 -13 84 -79 155 -145 357 -337
371 -349 496 -437 65 -45 195 -136 290 -203 97 -68 234 -153 313 -194 77 -40
205 -107 285 -150 80 -42 195 -103 255 -135 61 -32 146 -77 191 -101 l81 -44
1026 0 1026 0 118 61 c149 78 334 174 488 254 66 34 174 90 239 125 97 50 297
175 341 212 5 5 55 39 110 76 277 187 274 184 632 541 l349 348 19 79 c11 43
20 81 20 84 1 3 4 19 8 35 13 56 63 302 72 355 3 19 8 42 10 50 2 8 7 33 10
55 3 23 7 52 10 65 43 223 43 220 47 1150 3 543 -2 773 -18 895 -3 22 -6 65
-8 95 -2 30 -7 71 -10 90 -3 19 -8 56 -11 83 -12 110 -18 152 -51 342 -40 236
-37 219 -69 365 -21 95 -30 119 -53 138 -15 13 -38 33 -52 45 -14 12 -52 45
-85 72 -33 28 -65 55 -71 60 -6 6 -24 21 -40 35 -16 14 -59 50 -94 81 -68 58
-338 284 -355 297 -5 4 -62 44 -125 88 -63 44 -137 96 -165 115 -254 178 -461
319 -538 366 -187 114 -471 244 -657 301 -63 20 -91 20 -1095 19 l-1030 -1
-455 -227z"/>
</g>
</svg>
