<svg width="1920" height="416" viewBox="0 0 1920 416" fill="none" xmlns="http://www.w3.org/2000/svg">
<g clip-path="url(#clip0_830_591)">
<rect width="1920" height="416" fill="white"/>
<path d="M136.854 36.9756H102.6C96.7804 36.9756 92.1514 41.3333 92.1514 46.8116V79.0586C92.1514 84.5369 96.7804 88.8946 102.6 88.8946H136.854C142.674 88.8946 147.303 84.5369 147.303 79.0586V46.8116C147.303 41.3333 142.541 36.9756 136.854 36.9756Z" fill="#3774AB" fill-opacity="0.1"/>
<path d="M102.6 192.608H136.854C142.674 192.608 147.303 188.251 147.303 182.772V150.525C147.303 145.047 142.674 140.689 136.854 140.689H102.6C96.7804 140.689 92.1514 145.047 92.1514 150.525V182.772C92.1514 188.126 96.9127 192.608 102.6 192.608Z" fill="#3774AB" fill-opacity="0.1"/>
<path d="M147.304 98.606V130.853C147.304 136.331 151.933 140.689 157.752 140.689H192.007C197.826 140.689 202.455 136.331 202.455 130.853V98.606C202.455 93.1277 197.826 88.77 192.007 88.77H157.752C151.933 88.77 147.304 93.2522 147.304 98.606Z" fill="#3774AB" fill-opacity="0.1"/>
<path d="M37 98.606V130.853C37 136.331 41.629 140.689 47.4484 140.689H81.7031C87.5224 140.689 92.1515 136.331 92.1515 130.853V98.606C92.1515 93.1277 87.5224 88.77 81.7031 88.77H47.4484C41.7613 88.77 37 93.2522 37 98.606Z" fill="#3774AB" fill-opacity="0.1"/>
<path d="M323.471 36.9756H289.216C283.397 36.9756 278.768 41.3333 278.768 46.8116V79.0586C278.768 84.5369 283.397 88.8946 289.216 88.8946H323.471C329.29 88.8946 333.919 84.5369 333.919 79.0586V46.8116C333.919 41.3333 329.158 36.9756 323.471 36.9756Z" fill="#3774AB" fill-opacity="0.1"/>
<path d="M289.216 192.608H323.471C329.29 192.608 333.919 188.251 333.919 182.772V150.525C333.919 145.047 329.29 140.689 323.471 140.689H289.216C283.397 140.689 278.768 145.047 278.768 150.525V182.772C278.768 188.126 283.529 192.608 289.216 192.608Z" fill="#3774AB" fill-opacity="0.1"/>
<path d="M333.92 98.606V130.853C333.92 136.331 338.549 140.689 344.368 140.689H378.623C384.442 140.689 389.071 136.331 389.071 130.853V98.606C389.071 93.1277 384.442 88.77 378.623 88.77H344.368C338.549 88.77 333.92 93.2522 333.92 98.606Z" fill="#3774AB" fill-opacity="0.1"/>
<path d="M223.616 98.606V130.853C223.616 136.331 228.245 140.689 234.065 140.689H268.319C274.139 140.689 278.768 136.331 278.768 130.853V98.606C278.768 93.1277 274.139 88.77 268.319 88.77H234.065C228.378 88.77 223.616 93.2522 223.616 98.606Z" fill="#3774AB" fill-opacity="0.1"/>
<path d="M510.087 36.9756H475.832C470.013 36.9756 465.384 41.3333 465.384 46.8116V79.0586C465.384 84.5369 470.013 88.8946 475.832 88.8946H510.087C515.906 88.8946 520.535 84.5369 520.535 79.0586V46.8116C520.535 41.3333 515.774 36.9756 510.087 36.9756Z" fill="#3774AB" fill-opacity="0.1"/>
<path d="M475.832 192.608H510.087C515.906 192.608 520.535 188.251 520.535 182.772V150.525C520.535 145.047 515.906 140.689 510.087 140.689H475.832C470.013 140.689 465.384 145.047 465.384 150.525V182.772C465.384 188.126 470.145 192.608 475.832 192.608Z" fill="#3774AB" fill-opacity="0.1"/>
<path d="M520.536 98.606V130.853C520.536 136.331 525.165 140.689 530.985 140.689H565.239C571.059 140.689 575.688 136.331 575.688 130.853V98.606C575.688 93.1277 571.059 88.77 565.239 88.77H530.985C525.165 88.77 520.536 93.2522 520.536 98.606Z" fill="#3774AB" fill-opacity="0.1"/>
<path d="M410.232 98.606V130.853C410.232 136.331 414.861 140.689 420.681 140.689H454.936C460.755 140.689 465.384 136.331 465.384 130.853V98.606C465.384 93.1277 460.755 88.77 454.936 88.77H420.681C414.994 88.77 410.232 93.2522 410.232 98.606Z" fill="#3774AB" fill-opacity="0.1"/>
<path d="M696.704 36.9756H662.449C656.63 36.9756 652.001 41.3333 652.001 46.8116V79.0586C652.001 84.5369 656.63 88.8946 662.449 88.8946H696.704C702.523 88.8946 707.152 84.5369 707.152 79.0586V46.8116C707.152 41.3333 702.391 36.9756 696.704 36.9756Z" fill="#3774AB" fill-opacity="0.1"/>
<path d="M662.449 192.608H696.704C702.523 192.608 707.152 188.251 707.152 182.772V150.525C707.152 145.047 702.523 140.689 696.704 140.689H662.449C656.63 140.689 652.001 145.047 652.001 150.525V182.772C652.001 188.126 656.762 192.608 662.449 192.608Z" fill="#3774AB" fill-opacity="0.1"/>
<path d="M707.152 98.606V130.853C707.152 136.331 711.781 140.689 717.601 140.689H751.855C757.675 140.689 762.304 136.331 762.304 130.853V98.606C762.304 93.1277 757.675 88.77 751.855 88.77H717.601C711.781 88.77 707.152 93.2522 707.152 98.606Z" fill="#3774AB" fill-opacity="0.1"/>
<path d="M596.849 98.606V130.853C596.849 136.331 601.478 140.689 607.297 140.689H641.552C647.371 140.689 652 136.331 652 130.853V98.606C652 93.1277 647.371 88.77 641.552 88.77H607.297C601.61 88.77 596.849 93.2522 596.849 98.606Z" fill="#3774AB" fill-opacity="0.1"/>
<path d="M883.318 36.9756H849.064C843.244 36.9756 838.615 41.3333 838.615 46.8116V79.0586C838.615 84.5369 843.244 88.8946 849.064 88.8946H883.318C889.138 88.8946 893.767 84.5369 893.767 79.0586V46.8116C893.767 41.3333 889.005 36.9756 883.318 36.9756Z" fill="#3774AB" fill-opacity="0.1"/>
<path d="M849.064 192.608H883.318C889.138 192.608 893.767 188.251 893.767 182.772V150.525C893.767 145.047 889.138 140.689 883.318 140.689H849.064C843.244 140.689 838.615 145.047 838.615 150.525V182.772C838.615 188.126 843.377 192.608 849.064 192.608Z" fill="#3774AB" fill-opacity="0.1"/>
<path d="M893.768 98.606V130.853C893.768 136.331 898.397 140.689 904.216 140.689H938.471C944.29 140.689 948.919 136.331 948.919 130.853V98.606C948.919 93.1277 944.29 88.77 938.471 88.77H904.216C898.397 88.77 893.768 93.2522 893.768 98.606Z" fill="#3774AB" fill-opacity="0.1"/>
<path d="M783.464 98.606V130.853C783.464 136.331 788.093 140.689 793.912 140.689H828.167C833.986 140.689 838.615 136.331 838.615 130.853V98.606C838.615 93.1277 833.986 88.77 828.167 88.77H793.912C788.225 88.77 783.464 93.2522 783.464 98.606Z" fill="#3774AB" fill-opacity="0.1"/>
<path d="M1069.93 36.9756H1035.68C1029.86 36.9756 1025.23 41.3333 1025.23 46.8116V79.0586C1025.23 84.5369 1029.86 88.8946 1035.68 88.8946H1069.93C1075.75 88.8946 1080.38 84.5369 1080.38 79.0586V46.8116C1080.38 41.3333 1075.62 36.9756 1069.93 36.9756Z" fill="#3774AB" fill-opacity="0.1"/>
<path d="M1035.68 192.608H1069.93C1075.75 192.608 1080.38 188.251 1080.38 182.772V150.525C1080.38 145.047 1075.75 140.689 1069.93 140.689H1035.68C1029.86 140.689 1025.23 145.047 1025.23 150.525V182.772C1025.23 188.126 1029.99 192.608 1035.68 192.608Z" fill="#3774AB" fill-opacity="0.1"/>
<path d="M1080.38 98.606V130.853C1080.38 136.331 1085.01 140.689 1090.83 140.689H1125.09C1130.91 140.689 1135.53 136.331 1135.53 130.853V98.606C1135.53 93.1277 1130.91 88.77 1125.09 88.77H1090.83C1085.01 88.77 1080.38 93.2522 1080.38 98.606Z" fill="#3774AB" fill-opacity="0.1"/>
<path d="M970.08 98.606V130.853C970.08 136.331 974.709 140.689 980.528 140.689H1014.78C1020.6 140.689 1025.23 136.331 1025.23 130.853V98.606C1025.23 93.1277 1020.6 88.77 1014.78 88.77H980.528C974.841 88.77 970.08 93.2522 970.08 98.606Z" fill="#3774AB" fill-opacity="0.1"/>
<path d="M1256.55 36.9756H1222.3C1216.48 36.9756 1211.85 41.3333 1211.85 46.8116V79.0586C1211.85 84.5369 1216.48 88.8946 1222.3 88.8946H1256.55C1262.37 88.8946 1267 84.5369 1267 79.0586V46.8116C1267 41.3333 1262.24 36.9756 1256.55 36.9756Z" fill="#3774AB" fill-opacity="0.1"/>
<path d="M1222.3 192.608H1256.55C1262.37 192.608 1267 188.251 1267 182.772V150.525C1267 145.047 1262.37 140.689 1256.55 140.689H1222.3C1216.48 140.689 1211.85 145.047 1211.85 150.525V182.772C1211.85 188.126 1216.61 192.608 1222.3 192.608Z" fill="#3774AB" fill-opacity="0.1"/>
<path d="M1267 98.606V130.853C1267 136.331 1271.63 140.689 1277.45 140.689H1311.7C1317.52 140.689 1322.15 136.331 1322.15 130.853V98.606C1322.15 93.1277 1317.52 88.77 1311.7 88.77H1277.45C1271.63 88.77 1267 93.2522 1267 98.606Z" fill="#3774AB" fill-opacity="0.1"/>
<path d="M1156.7 98.606V130.853C1156.7 136.331 1161.33 140.689 1167.15 140.689H1201.4C1207.22 140.689 1211.85 136.331 1211.85 130.853V98.606C1211.85 93.1277 1207.22 88.77 1201.4 88.77H1167.15C1161.46 88.77 1156.7 93.2522 1156.7 98.606Z" fill="#3774AB" fill-opacity="0.1"/>
<path d="M1443.17 36.9756H1408.91C1403.09 36.9756 1398.46 41.3333 1398.46 46.8116V79.0586C1398.46 84.5369 1403.09 88.8946 1408.91 88.8946H1443.17C1448.99 88.8946 1453.61 84.5369 1453.61 79.0586V46.8116C1453.61 41.3333 1448.85 36.9756 1443.17 36.9756Z" fill="#3774AB" fill-opacity="0.1"/>
<path d="M1408.91 192.608H1443.17C1448.99 192.608 1453.61 188.251 1453.61 182.772V150.525C1453.61 145.047 1448.99 140.689 1443.17 140.689H1408.91C1403.09 140.689 1398.46 145.047 1398.46 150.525V182.772C1398.46 188.126 1403.22 192.608 1408.91 192.608Z" fill="#3774AB" fill-opacity="0.1"/>
<path d="M1453.62 98.606V130.853C1453.62 136.331 1458.24 140.689 1464.06 140.689H1498.32C1504.14 140.689 1508.77 136.331 1508.77 130.853V98.606C1508.77 93.1277 1504.14 88.77 1498.32 88.77H1464.06C1458.24 88.77 1453.62 93.2522 1453.62 98.606Z" fill="#3774AB" fill-opacity="0.1"/>
<path d="M1343.31 98.606V130.853C1343.31 136.331 1347.94 140.689 1353.76 140.689H1388.02C1393.83 140.689 1398.46 136.331 1398.46 130.853V98.606C1398.46 93.1277 1393.83 88.77 1388.02 88.77H1353.76C1348.07 88.77 1343.31 93.2522 1343.31 98.606Z" fill="#3774AB" fill-opacity="0.1"/>
<path d="M1629.78 36.9756H1595.52C1589.71 36.9756 1585.08 41.3333 1585.08 46.8116V79.0586C1585.08 84.5369 1589.71 88.8946 1595.52 88.8946H1629.78C1635.6 88.8946 1640.23 84.5369 1640.23 79.0586V46.8116C1640.23 41.3333 1635.47 36.9756 1629.78 36.9756Z" fill="#3774AB" fill-opacity="0.1"/>
<path d="M1595.52 192.608H1629.78C1635.6 192.608 1640.23 188.251 1640.23 182.772V150.525C1640.23 145.047 1635.6 140.689 1629.78 140.689H1595.52C1589.71 140.689 1585.08 145.047 1585.08 150.525V182.772C1585.08 188.126 1589.84 192.608 1595.52 192.608Z" fill="#3774AB" fill-opacity="0.1"/>
<path d="M1640.23 98.606V130.853C1640.23 136.331 1644.86 140.689 1650.68 140.689H1684.93C1690.75 140.689 1695.38 136.331 1695.38 130.853V98.606C1695.38 93.1277 1690.75 88.77 1684.93 88.77H1650.68C1644.86 88.77 1640.23 93.2522 1640.23 98.606Z" fill="#3774AB" fill-opacity="0.1"/>
<path d="M1529.93 98.606V130.853C1529.93 136.331 1534.56 140.689 1540.38 140.689H1574.63C1580.45 140.689 1585.08 136.331 1585.08 130.853V98.606C1585.08 93.1277 1580.45 88.77 1574.63 88.77H1540.38C1534.69 88.77 1529.93 93.2522 1529.93 98.606Z" fill="#3774AB" fill-opacity="0.1"/>
<path d="M1816.4 36.9756H1782.14C1776.32 36.9756 1771.7 41.3333 1771.7 46.8116V79.0586C1771.7 84.5369 1776.32 88.8946 1782.14 88.8946H1816.4C1822.22 88.8946 1826.85 84.5369 1826.85 79.0586V46.8116C1826.85 41.3333 1822.09 36.9756 1816.4 36.9756Z" fill="#3774AB" fill-opacity="0.1"/>
<path d="M1782.14 192.608H1816.4C1822.22 192.608 1826.85 188.251 1826.85 182.772V150.525C1826.85 145.047 1822.22 140.689 1816.4 140.689H1782.14C1776.32 140.689 1771.7 145.047 1771.7 150.525V182.772C1771.7 188.126 1776.46 192.608 1782.14 192.608Z" fill="#3774AB" fill-opacity="0.1"/>
<path d="M1826.85 98.606V130.853C1826.85 136.331 1831.48 140.689 1837.3 140.689H1871.55C1877.37 140.689 1882 136.331 1882 130.853V98.606C1882 93.1277 1877.37 88.77 1871.55 88.77H1837.3C1831.48 88.77 1826.85 93.2522 1826.85 98.606Z" fill="#3774AB" fill-opacity="0.1"/>
<path d="M1716.55 98.606V130.853C1716.55 136.331 1721.18 140.689 1727 140.689H1761.25C1767.07 140.689 1771.7 136.331 1771.7 130.853V98.606C1771.7 93.1277 1767.07 88.77 1761.25 88.77H1727C1721.31 88.77 1716.55 93.2522 1716.55 98.606Z" fill="#3774AB" fill-opacity="0.1"/>
<path d="M136.854 212.529H102.6C96.7804 212.529 92.1514 216.887 92.1514 222.365V254.612C92.1514 260.09 96.7804 264.448 102.6 264.448H136.854C142.674 264.448 147.303 260.09 147.303 254.612V222.365C147.303 216.887 142.541 212.529 136.854 212.529Z" fill="#3774AB" fill-opacity="0.1"/>
<path d="M102.6 368.161H136.854C142.674 368.161 147.303 363.804 147.303 358.325V326.078C147.303 320.6 142.674 316.242 136.854 316.242H102.6C96.7804 316.242 92.1514 320.6 92.1514 326.078V358.325C92.1514 363.679 96.9127 368.161 102.6 368.161Z" fill="#3774AB" fill-opacity="0.1"/>
<path d="M147.304 274.159V306.406C147.304 311.885 151.933 316.242 157.752 316.242H192.007C197.826 316.242 202.455 311.885 202.455 306.406V274.159C202.455 268.681 197.826 264.323 192.007 264.323H157.752C151.933 264.323 147.304 268.805 147.304 274.159Z" fill="#3774AB" fill-opacity="0.1"/>
<path d="M37 274.159V306.406C37 311.885 41.629 316.242 47.4484 316.242H81.7031C87.5224 316.242 92.1515 311.885 92.1515 306.406V274.159C92.1515 268.681 87.5224 264.323 81.7031 264.323H47.4484C41.7613 264.323 37 268.805 37 274.159Z" fill="#3774AB" fill-opacity="0.1"/>
<path d="M323.471 212.529H289.216C283.397 212.529 278.768 216.887 278.768 222.365V254.612C278.768 260.09 283.397 264.448 289.216 264.448H323.471C329.29 264.448 333.919 260.09 333.919 254.612V222.365C333.919 216.887 329.158 212.529 323.471 212.529Z" fill="#3774AB" fill-opacity="0.1"/>
<path d="M289.216 368.161H323.471C329.29 368.161 333.919 363.804 333.919 358.325V326.078C333.919 320.6 329.29 316.242 323.471 316.242H289.216C283.397 316.242 278.768 320.6 278.768 326.078V358.325C278.768 363.679 283.529 368.161 289.216 368.161Z" fill="#3774AB" fill-opacity="0.1"/>
<path d="M333.92 274.159V306.406C333.92 311.885 338.549 316.242 344.368 316.242H378.623C384.442 316.242 389.071 311.885 389.071 306.406V274.159C389.071 268.681 384.442 264.323 378.623 264.323H344.368C338.549 264.323 333.92 268.805 333.92 274.159Z" fill="#3774AB" fill-opacity="0.1"/>
<path d="M223.616 274.159V306.406C223.616 311.885 228.245 316.242 234.065 316.242H268.319C274.139 316.242 278.768 311.885 278.768 306.406V274.159C278.768 268.681 274.139 264.323 268.319 264.323H234.065C228.378 264.323 223.616 268.805 223.616 274.159Z" fill="#3774AB" fill-opacity="0.1"/>
<path d="M510.087 212.529H475.832C470.013 212.529 465.384 216.887 465.384 222.365V254.612C465.384 260.09 470.013 264.448 475.832 264.448H510.087C515.906 264.448 520.535 260.09 520.535 254.612V222.365C520.535 216.887 515.774 212.529 510.087 212.529Z" fill="#3774AB" fill-opacity="0.1"/>
<path d="M475.832 368.161H510.087C515.906 368.161 520.535 363.804 520.535 358.325V326.078C520.535 320.6 515.906 316.242 510.087 316.242H475.832C470.013 316.242 465.384 320.6 465.384 326.078V358.325C465.384 363.679 470.145 368.161 475.832 368.161Z" fill="#3774AB" fill-opacity="0.1"/>
<path d="M520.536 274.159V306.406C520.536 311.885 525.165 316.242 530.985 316.242H565.239C571.059 316.242 575.688 311.885 575.688 306.406V274.159C575.688 268.681 571.059 264.323 565.239 264.323H530.985C525.165 264.323 520.536 268.805 520.536 274.159Z" fill="#3774AB" fill-opacity="0.1"/>
<path d="M410.232 274.159V306.406C410.232 311.885 414.861 316.242 420.681 316.242H454.936C460.755 316.242 465.384 311.885 465.384 306.406V274.159C465.384 268.681 460.755 264.323 454.936 264.323H420.681C414.994 264.323 410.232 268.805 410.232 274.159Z" fill="#3774AB" fill-opacity="0.1"/>
<path d="M696.704 212.529H662.449C656.63 212.529 652.001 216.887 652.001 222.365V254.612C652.001 260.09 656.63 264.448 662.449 264.448H696.704C702.523 264.448 707.152 260.09 707.152 254.612V222.365C707.152 216.887 702.391 212.529 696.704 212.529Z" fill="#3774AB" fill-opacity="0.1"/>
<path d="M662.449 368.161H696.704C702.523 368.161 707.152 363.804 707.152 358.325V326.078C707.152 320.6 702.523 316.242 696.704 316.242H662.449C656.63 316.242 652.001 320.6 652.001 326.078V358.325C652.001 363.679 656.762 368.161 662.449 368.161Z" fill="#3774AB" fill-opacity="0.1"/>
<path d="M707.152 274.159V306.406C707.152 311.885 711.781 316.242 717.601 316.242H751.855C757.675 316.242 762.304 311.885 762.304 306.406V274.159C762.304 268.681 757.675 264.323 751.855 264.323H717.601C711.781 264.323 707.152 268.805 707.152 274.159Z" fill="#3774AB" fill-opacity="0.1"/>
<path d="M596.849 274.159V306.406C596.849 311.885 601.478 316.242 607.297 316.242H641.552C647.371 316.242 652 311.885 652 306.406V274.159C652 268.681 647.371 264.323 641.552 264.323H607.297C601.61 264.323 596.849 268.805 596.849 274.159Z" fill="#3774AB" fill-opacity="0.1"/>
<path d="M883.318 212.529H849.064C843.244 212.529 838.615 216.887 838.615 222.365V254.612C838.615 260.09 843.244 264.448 849.064 264.448H883.318C889.138 264.448 893.767 260.09 893.767 254.612V222.365C893.767 216.887 889.005 212.529 883.318 212.529Z" fill="#3774AB" fill-opacity="0.1"/>
<path d="M849.064 368.161H883.318C889.138 368.161 893.767 363.804 893.767 358.325V326.078C893.767 320.6 889.138 316.242 883.318 316.242H849.064C843.244 316.242 838.615 320.6 838.615 326.078V358.325C838.615 363.679 843.377 368.161 849.064 368.161Z" fill="#3774AB" fill-opacity="0.1"/>
<path d="M893.768 274.159V306.406C893.768 311.885 898.397 316.242 904.216 316.242H938.471C944.29 316.242 948.919 311.885 948.919 306.406V274.159C948.919 268.681 944.29 264.323 938.471 264.323H904.216C898.397 264.323 893.768 268.805 893.768 274.159Z" fill="#3774AB" fill-opacity="0.1"/>
<path d="M783.464 274.159V306.406C783.464 311.885 788.093 316.242 793.912 316.242H828.167C833.986 316.242 838.615 311.885 838.615 306.406V274.159C838.615 268.681 833.986 264.323 828.167 264.323H793.912C788.225 264.323 783.464 268.805 783.464 274.159Z" fill="#3774AB" fill-opacity="0.1"/>
<path d="M1069.93 212.529H1035.68C1029.86 212.529 1025.23 216.887 1025.23 222.365V254.612C1025.23 260.09 1029.86 264.448 1035.68 264.448H1069.93C1075.75 264.448 1080.38 260.09 1080.38 254.612V222.365C1080.38 216.887 1075.62 212.529 1069.93 212.529Z" fill="#3774AB" fill-opacity="0.1"/>
<path d="M1035.68 368.161H1069.93C1075.75 368.161 1080.38 363.804 1080.38 358.325V326.078C1080.38 320.6 1075.75 316.242 1069.93 316.242H1035.68C1029.86 316.242 1025.23 320.6 1025.23 326.078V358.325C1025.23 363.679 1029.99 368.161 1035.68 368.161Z" fill="#3774AB" fill-opacity="0.1"/>
<path d="M1080.38 274.159V306.406C1080.38 311.885 1085.01 316.242 1090.83 316.242H1125.09C1130.91 316.242 1135.53 311.885 1135.53 306.406V274.159C1135.53 268.681 1130.91 264.323 1125.09 264.323H1090.83C1085.01 264.323 1080.38 268.805 1080.38 274.159Z" fill="#3774AB" fill-opacity="0.1"/>
<path d="M970.08 274.159V306.406C970.08 311.885 974.709 316.242 980.528 316.242H1014.78C1020.6 316.242 1025.23 311.885 1025.23 306.406V274.159C1025.23 268.681 1020.6 264.323 1014.78 264.323H980.528C974.841 264.323 970.08 268.805 970.08 274.159Z" fill="#3774AB" fill-opacity="0.1"/>
<path d="M1256.55 212.529H1222.3C1216.48 212.529 1211.85 216.887 1211.85 222.365V254.612C1211.85 260.09 1216.48 264.448 1222.3 264.448H1256.55C1262.37 264.448 1267 260.09 1267 254.612V222.365C1267 216.887 1262.24 212.529 1256.55 212.529Z" fill="#3774AB" fill-opacity="0.1"/>
<path d="M1222.3 368.161H1256.55C1262.37 368.161 1267 363.804 1267 358.325V326.078C1267 320.6 1262.37 316.242 1256.55 316.242H1222.3C1216.48 316.242 1211.85 320.6 1211.85 326.078V358.325C1211.85 363.679 1216.61 368.161 1222.3 368.161Z" fill="#3774AB" fill-opacity="0.1"/>
<path d="M1267 274.159V306.406C1267 311.885 1271.63 316.242 1277.45 316.242H1311.7C1317.52 316.242 1322.15 311.885 1322.15 306.406V274.159C1322.15 268.681 1317.52 264.323 1311.7 264.323H1277.45C1271.63 264.323 1267 268.805 1267 274.159Z" fill="#3774AB" fill-opacity="0.1"/>
<path d="M1156.7 274.159V306.406C1156.7 311.885 1161.33 316.242 1167.15 316.242H1201.4C1207.22 316.242 1211.85 311.885 1211.85 306.406V274.159C1211.85 268.681 1207.22 264.323 1201.4 264.323H1167.15C1161.46 264.323 1156.7 268.805 1156.7 274.159Z" fill="#3774AB" fill-opacity="0.1"/>
<path d="M1443.17 212.529H1408.91C1403.09 212.529 1398.46 216.887 1398.46 222.365V254.612C1398.46 260.09 1403.09 264.448 1408.91 264.448H1443.17C1448.99 264.448 1453.61 260.09 1453.61 254.612V222.365C1453.61 216.887 1448.85 212.529 1443.17 212.529Z" fill="#3774AB" fill-opacity="0.1"/>
<path d="M1408.91 368.161H1443.17C1448.99 368.161 1453.61 363.804 1453.61 358.325V326.078C1453.61 320.6 1448.99 316.242 1443.17 316.242H1408.91C1403.09 316.242 1398.46 320.6 1398.46 326.078V358.325C1398.46 363.679 1403.22 368.161 1408.91 368.161Z" fill="#3774AB" fill-opacity="0.1"/>
<path d="M1453.62 274.159V306.406C1453.62 311.885 1458.24 316.242 1464.06 316.242H1498.32C1504.14 316.242 1508.77 311.885 1508.77 306.406V274.159C1508.77 268.681 1504.14 264.323 1498.32 264.323H1464.06C1458.24 264.323 1453.62 268.805 1453.62 274.159Z" fill="#3774AB" fill-opacity="0.1"/>
<path d="M1343.31 274.159V306.406C1343.31 311.885 1347.94 316.242 1353.76 316.242H1388.02C1393.83 316.242 1398.46 311.885 1398.46 306.406V274.159C1398.46 268.681 1393.83 264.323 1388.02 264.323H1353.76C1348.07 264.323 1343.31 268.805 1343.31 274.159Z" fill="#3774AB" fill-opacity="0.1"/>
<path d="M1629.78 212.529H1595.52C1589.71 212.529 1585.08 216.887 1585.08 222.365V254.612C1585.08 260.09 1589.71 264.448 1595.52 264.448H1629.78C1635.6 264.448 1640.23 260.09 1640.23 254.612V222.365C1640.23 216.887 1635.47 212.529 1629.78 212.529Z" fill="#3774AB" fill-opacity="0.1"/>
<path d="M1595.52 368.161H1629.78C1635.6 368.161 1640.23 363.804 1640.23 358.325V326.078C1640.23 320.6 1635.6 316.242 1629.78 316.242H1595.52C1589.71 316.242 1585.08 320.6 1585.08 326.078V358.325C1585.08 363.679 1589.84 368.161 1595.52 368.161Z" fill="#3774AB" fill-opacity="0.1"/>
<path d="M1640.23 274.159V306.406C1640.23 311.885 1644.86 316.242 1650.68 316.242H1684.93C1690.75 316.242 1695.38 311.885 1695.38 306.406V274.159C1695.38 268.681 1690.75 264.323 1684.93 264.323H1650.68C1644.86 264.323 1640.23 268.805 1640.23 274.159Z" fill="#3774AB" fill-opacity="0.1"/>
<path d="M1529.93 274.159V306.406C1529.93 311.885 1534.56 316.242 1540.38 316.242H1574.63C1580.45 316.242 1585.08 311.885 1585.08 306.406V274.159C1585.08 268.681 1580.45 264.323 1574.63 264.323H1540.38C1534.69 264.323 1529.93 268.805 1529.93 274.159Z" fill="#3774AB" fill-opacity="0.1"/>
<path d="M1816.4 212.529H1782.14C1776.32 212.529 1771.7 216.887 1771.7 222.365V254.612C1771.7 260.09 1776.32 264.448 1782.14 264.448H1816.4C1822.22 264.448 1826.85 260.09 1826.85 254.612V222.365C1826.85 216.887 1822.09 212.529 1816.4 212.529Z" fill="#3774AB" fill-opacity="0.1"/>
<path d="M1782.14 368.161H1816.4C1822.22 368.161 1826.85 363.804 1826.85 358.325V326.078C1826.85 320.6 1822.22 316.242 1816.4 316.242H1782.14C1776.32 316.242 1771.7 320.6 1771.7 326.078V358.325C1771.7 363.679 1776.46 368.161 1782.14 368.161Z" fill="#3774AB" fill-opacity="0.1"/>
<path d="M1826.85 274.159V306.406C1826.85 311.885 1831.48 316.242 1837.3 316.242H1871.55C1877.37 316.242 1882 311.885 1882 306.406V274.159C1882 268.681 1877.37 264.323 1871.55 264.323H1837.3C1831.48 264.323 1826.85 268.805 1826.85 274.159Z" fill="#3774AB" fill-opacity="0.1"/>
<path d="M1716.55 274.159V306.406C1716.55 311.885 1721.18 316.242 1727 316.242H1761.25C1767.07 316.242 1771.7 311.885 1771.7 306.406V274.159C1771.7 268.681 1767.07 264.323 1761.25 264.323H1727C1721.31 264.323 1716.55 268.805 1716.55 274.159Z" fill="#3774AB" fill-opacity="0.1"/>
<rect y="323.908" width="1918" height="92.0916" fill="url(#paint0_linear_830_591)"/>
<rect x="2" width="1918" height="213" fill="url(#paint1_linear_830_591)"/>
</g>
<defs>
<linearGradient id="paint0_linear_830_591" x1="959" y1="323.908" x2="959" y2="416" gradientUnits="userSpaceOnUse">
<stop stop-color="white" stop-opacity="0"/>
<stop offset="0.855517" stop-color="white"/>
</linearGradient>
<linearGradient id="paint1_linear_830_591" x1="961" y1="0" x2="961" y2="213" gradientUnits="userSpaceOnUse">
<stop stop-color="white"/>
<stop offset="1" stop-color="white" stop-opacity="0"/>
</linearGradient>
<clipPath id="clip0_830_591">
<rect width="1920" height="416" fill="white"/>
</clipPath>
</defs>
</svg>
