<svg xmlns="http://www.w3.org/2000/svg" width="56" height="56" viewBox="0 0 56 56"><path d="M23.3,0A39.416,39.416,0,0,0,2.714,5.476L13.8,13.243A19.97,19.97,0,0,1,23.3,10.92a19.939,19.939,0,0,1,9.508,2.326L43.9,5.479A39.391,39.391,0,0,0,23.3,0Z" transform="translate(4.695)" fill="#a4abbf"/><path d="M13.8,11.148,2.714,18.915A39.391,39.391,0,0,0,23.3,24.394,39.415,39.415,0,0,0,43.9,18.918L32.813,11.151A19.97,19.97,0,0,1,23.3,13.474,19.939,19.939,0,0,1,13.8,11.148Z" transform="translate(4.695 31.606)" fill="#a4abbf"/><path d="M11.148,13.8A19.939,19.939,0,0,1,13.474,23.3a19.939,19.939,0,0,1-2.326,9.508L18.915,43.9A39.391,39.391,0,0,0,24.394,23.3,39.415,39.415,0,0,0,18.918,2.714Z" transform="translate(31.606 4.695)" fill="#a4abbf"/><path d="M13.246,32.813A19.939,19.939,0,0,1,10.92,23.3,19.939,19.939,0,0,1,13.246,13.8L5.476,2.714A39.416,39.416,0,0,0,0,23.3,39.416,39.416,0,0,0,5.476,43.9Z" transform="translate(0 4.695)" fill="#a4abbf"/></svg>